<svg width="42" height="42" viewBox="0 0 42 42" fill="none" xmlns="http://www.w3.org/2000/svg">
<rect x="0.498535" y="0.5" width="41" height="41" rx="20.5" stroke="#A8A8A8"/>
<path d="M28.741 13.2168L25.5527 25.1159L16.842 16.4051L28.741 13.2168Z" fill="#A8A8A8"/>
<path d="M13.6479 28.3057L16.8363 16.4066L25.547 25.1173L13.6479 28.3057Z" fill="#A8A8A8"/>
<mask id="path-3-inside-1_2640_37014" fill="white">
<path fill-rule="evenodd" clip-rule="evenodd" d="M23.6056 23.1751L25.3759 16.5683L18.7691 18.3385L23.6056 23.1751ZM22.8951 25.8265L20.2543 26.5341L22.1875 28.4673L22.8951 25.8265ZM15.4178 21.6976L16.1283 19.0461L13.4768 19.7566L15.4178 21.6976Z"/>
</mask>
<path fill-rule="evenodd" clip-rule="evenodd" d="M23.6056 23.1751L25.3759 16.5683L18.7691 18.3385L23.6056 23.1751ZM22.8951 25.8265L20.2543 26.5341L22.1875 28.4673L22.8951 25.8265ZM15.4178 21.6976L16.1283 19.0461L13.4768 19.7566L15.4178 21.6976Z" fill="#2B2B2B"/>
<path d="M25.8751 20.9015L21.0427 16.0691L16.5067 20.605L21.3391 25.4374L25.8751 20.9015ZM25.3759 16.5683L31.5721 18.2285L34.4478 7.49637L23.7156 10.372L25.3759 16.5683ZM23.6056 23.1751L19.0696 27.711L26.9261 35.5675L29.8018 24.8353L23.6056 23.1751ZM18.7691 18.3385L17.1088 12.1423L6.37664 15.018L14.2331 22.8745L18.7691 18.3385ZM22.8951 25.8265L29.0913 27.4868L31.967 16.7546L21.2349 19.6303L22.8951 25.8265ZM20.2543 26.5341L18.594 20.3379L7.8619 23.2136L15.7184 31.0701L20.2543 26.5341ZM22.1875 28.4673L17.6516 33.0033L25.5081 40.8597L28.3837 30.1276L22.1875 28.4673ZM15.4178 21.6976L10.8819 26.2335L18.7383 34.09L21.614 23.3579L15.4178 21.6976ZM16.1283 19.0461L22.3245 20.7064L25.2001 9.97426L14.468 12.8499L16.1283 19.0461ZM13.4768 19.7566L11.8165 13.5604L1.08438 16.4361L8.94086 24.2925L13.4768 19.7566ZM19.1797 14.908L17.4094 21.5148L29.8018 24.8353L31.5721 18.2285L19.1797 14.908ZM20.4293 24.5348L27.0361 22.7645L23.7156 10.372L17.1088 12.1423L20.4293 24.5348ZM14.2331 22.8745L19.0696 27.711L28.1415 18.6391L23.305 13.8026L14.2331 22.8745ZM21.2349 19.6303L18.594 20.3379L21.9146 32.7303L24.5554 32.0227L21.2349 19.6303ZM26.7235 23.9314L24.7903 21.9982L15.7184 31.0701L17.6516 33.0033L26.7235 23.9314ZM16.6989 24.1662L15.9913 26.807L28.3837 30.1276L29.0913 27.4868L16.6989 24.1662ZM21.614 23.3579L22.3245 20.7064L9.93205 17.3859L9.22159 20.0373L21.614 23.3579ZM15.1371 25.9528L17.7885 25.2424L14.468 12.8499L11.8165 13.5604L15.1371 25.9528ZM19.9537 17.1617L18.0127 15.2207L8.94086 24.2925L10.8819 26.2335L19.9537 17.1617Z" fill="white" mask="url(#path-3-inside-1_2640_37014)"/>
</svg>
