<svg width="42" height="42" viewBox="0 0 42 42" fill="none" xmlns="http://www.w3.org/2000/svg">
<rect x="0.5" y="0.5" width="41" height="41" rx="20.5" stroke="#A8A8A8"/>
<path d="M26 12C26.7652 12 27.5015 12.2923 28.0583 12.8173C28.615 13.3422 28.9501 14.0601 28.995 14.824L29 15V19.35L29.594 19.086C30.208 18.813 30.916 19.236 30.994 19.884L31 20V28C31.0002 28.5046 30.8096 28.9906 30.4665 29.3605C30.1234 29.7305 29.6532 29.9572 29.15 29.995L29 30H13C12.4954 30.0002 12.0094 29.8096 11.6395 29.4665C11.2695 29.1234 11.0428 28.6532 11.005 28.15L11 28V20C11 19.328 11.675 18.853 12.297 19.045L12.407 19.086L13 19.35V15C13 14.2348 13.2923 13.4985 13.8173 12.9417C14.3422 12.385 15.0601 12.0499 15.824 12.005L16 12H26ZM26 14H16C15.7348 14 15.4804 14.1054 15.2929 14.2929C15.1054 14.4804 15 14.7348 15 15V20.239L21 22.906L27 20.239V15C27 14.7348 26.8946 14.4804 26.7071 14.2929C26.5196 14.1054 26.2652 14 26 14ZM21 17C21.2549 17.0003 21.5 17.0979 21.6854 17.2728C21.8707 17.4478 21.9822 17.687 21.9972 17.9414C22.0121 18.1958 21.9293 18.4464 21.7657 18.6418C21.6021 18.8373 21.3701 18.9629 21.117 18.993L21 19H19C18.7451 18.9997 18.5 18.9021 18.3146 18.7272C18.1293 18.5522 18.0178 18.313 18.0028 18.0586C17.9879 17.8042 18.0707 17.5536 18.2343 17.3582C18.3979 17.1627 18.6299 17.0371 18.883 17.007L19 17H21Z" fill="#A8A8A8"/>
</svg>
