<svg width="14" height="13" viewBox="0 0 14 13" fill="none" xmlns="http://www.w3.org/2000/svg">
<path d="M13 4.80575C12.8673 4.92709 12.7387 5.0374 12.6141 5.13668C12.4894 5.23596 12.3588 5.32237 12.2221 5.39592C12.0854 5.46946 11.9387 5.52277 11.7819 5.55587C11.6251 5.58896 11.4442 5.60918 11.2392 5.61654C11.1025 5.61654 10.9719 5.60551 10.8472 5.58345L8.56181 7.67385C8.61407 7.81358 8.65226 7.95698 8.67638 8.10406C8.7005 8.25115 8.71256 8.39823 8.71256 8.54531C8.71256 8.78432 8.68643 9.00126 8.63417 9.19615C8.58191 9.39103 8.50754 9.57488 8.41106 9.74771C8.31457 9.92053 8.19397 10.0842 8.04925 10.2386C7.90452 10.393 7.74573 10.553 7.57287 10.7184L5.24523 8.58944L1.8201 11.7278L1 11.976L1.27136 11.2259L4.70251 8.09303L2.37487 5.96402L2.64623 5.71582C2.92764 5.45843 3.24925 5.2617 3.61106 5.12565C3.97286 4.9896 4.35477 4.92158 4.75678 4.92158C5.08643 4.92158 5.40201 4.96754 5.70352 5.05947L7.98895 2.96906C7.96482 2.85507 7.95276 2.73557 7.95276 2.61055C7.95276 2.43037 7.97286 2.26858 8.01307 2.12518C8.05327 1.98177 8.11357 1.84572 8.19397 1.71703C8.27437 1.58833 8.36683 1.46882 8.47136 1.35851C8.57588 1.2482 8.69849 1.1287 8.8392 1L13 4.80575ZM11.2392 4.91054C11.4603 4.91054 11.6693 4.86274 11.8663 4.76714L8.88141 2.03693C8.77689 2.2171 8.72462 2.40831 8.72462 2.61055C8.72462 2.71351 8.73668 2.80911 8.7608 2.89736C8.78492 2.98561 8.81508 3.07937 8.85126 3.17865L5.88442 5.8868C5.78392 5.85003 5.68945 5.8151 5.60101 5.78201C5.51256 5.74891 5.42412 5.72133 5.33568 5.69927C5.24724 5.67721 5.15678 5.66066 5.06432 5.64963C4.97186 5.6386 4.86935 5.63125 4.75678 5.62757C4.52764 5.62757 4.30653 5.65699 4.09347 5.71582C3.8804 5.77465 3.6794 5.86474 3.49045 5.98608L7.54874 9.69807C7.67739 9.52892 7.77588 9.34691 7.84422 9.15202C7.91256 8.95714 7.94673 8.7549 7.94673 8.54531C7.94673 8.44603 7.9407 8.3541 7.92864 8.26953C7.91658 8.18496 7.89648 8.10039 7.86834 8.01582C7.8402 7.93124 7.80804 7.84851 7.77186 7.76761C7.73568 7.68672 7.69749 7.60031 7.65729 7.50838L10.6181 4.79472C10.7226 4.82413 10.8231 4.84987 10.9196 4.87194C11.0161 4.894 11.1226 4.90687 11.2392 4.91054Z" fill="black" stroke="black" stroke-width="0.2"/>
</svg>
