<svg width="26" height="26" viewBox="0 0 26 26" fill="none" xmlns="http://www.w3.org/2000/svg">
<circle cx="13" cy="13" r="13" fill="white"/>
<path d="M15.8487 13.1618C15.8487 13.1618 18.7811 10.2292 18.7834 10.227C19.5457 9.46462 19.5063 8.18463 18.7042 7.46738C17.9544 6.79675 16.7862 6.85462 16.0443 7.59724L13.1643 10.4775L10.2842 7.59724C9.54163 6.85462 8.3738 6.79675 7.62439 7.46735C6.82312 8.18436 6.7853 9.46727 7.5452 10.2268L10.4799 13.1615C10.4799 13.1615 7.54956 16.092 7.54521 16.0963C6.80203 16.8396 6.8342 18.133 7.60627 18.8395C8.344 19.5151 9.55255 19.4578 10.2993 18.711L13.1643 15.846L16.0292 18.711C16.7655 19.4479 18.0166 19.5296 18.7792 18.7853C19.5221 18.0602 19.5123 16.8253 18.7834 16.0963L15.8487 13.1618Z" fill="#EB6666"/>
</svg>
